<svg width="26" height="26" viewBox="0 0 26 26" fill="none" xmlns="http://www.w3.org/2000/svg">
<path fill-rule="evenodd" clip-rule="evenodd" d="M11.3157 1.97476C10.4443 1.97476 9.70293 2.58032 9.49482 3.39652H16.4923C16.2842 2.58032 15.5428 1.97476 14.6714 1.97476H11.3157ZM18.4692 3.39644H21.0445C23.7759 3.39644 26 5.64757 26 8.41211C26 8.41211 25.922 9.58243 25.8959 11.2122C25.8933 11.3412 25.8309 11.4676 25.7282 11.5439C25.1026 12.006 24.5303 12.3878 24.4782 12.4141C22.3192 13.8622 19.8102 14.8811 17.1374 15.388C16.9631 15.4222 16.7914 15.3314 16.703 15.176C15.9538 13.878 14.5543 13.0328 12.9935 13.0328C11.4431 13.0328 10.0306 13.8688 9.25933 15.1681C9.16958 15.3208 9.0005 15.409 8.82751 15.3761C6.17679 14.868 3.66783 13.8504 1.52176 12.4273L0.273137 11.5584C0.169085 11.4926 0.104052 11.3741 0.104052 11.2425C0.0650325 10.5711 0 8.41211 0 8.41211C0 5.64757 2.22411 3.39644 4.95548 3.39644H7.51776C7.76488 1.48759 9.36468 0 11.3157 0H14.6713C16.6223 0 18.2221 1.48759 18.4692 3.39644ZM25.5578 14.0599L25.5058 14.0862C22.8785 15.8503 19.7179 17.0219 16.4013 17.509C15.933 17.5748 15.4648 17.272 15.3347 16.7981C15.0486 15.7186 14.1251 15.0077 13.0196 15.0077H13.0066H12.9806C11.875 15.0077 10.9515 15.7186 10.6654 16.7981C10.5353 17.272 10.0671 17.5748 9.59886 17.509C6.2822 17.0219 3.12162 15.8503 0.494309 14.0862C0.481303 14.0731 0.351238 13.9941 0.247185 14.0599C0.130127 14.1257 0.130127 14.2837 0.130127 14.2837L0.221172 20.9976C0.221172 23.7621 2.43228 26.0001 5.16364 26.0001H20.8235C23.5548 26.0001 25.7659 23.7621 25.7659 20.9976L25.87 14.2837C25.87 14.2837 25.87 14.1257 25.7529 14.0599C25.6879 14.0204 25.6099 14.0336 25.5578 14.0599ZM13.969 19.5759C13.969 20.1288 13.5398 20.5632 12.9935 20.5632C12.4602 20.5632 12.018 20.1288 12.018 19.5759V17.8777C12.018 17.3379 12.4602 16.8903 12.9935 16.8903C13.5398 16.8903 13.969 17.3379 13.969 17.8777V19.5759Z" fill="#5D6EFF"/>
</svg>
