<svg width="1920" height="1063" viewBox="0 0 1920 1063" fill="none" xmlns="http://www.w3.org/2000/svg">
<rect width="1920" height="1063" fill="#5D6EFF"/>
<mask id="mask0_569_10" style="mask-type:alpha" maskUnits="userSpaceOnUse" x="0" y="0" width="1920" height="1063">
<rect width="1920" height="1063" fill="#5D6EFF"/>
</mask>
<g mask="url(#mask0_569_10)">
<path opacity="0.3" d="M87.5 292C84.2438 240.903 53.2387 202.562 21.347 177.519C-1.7594 159.374 -31.1495 178.424 -31.2893 207.803L-35.8691 1170.48C-35.9486 1187.19 -26.1742 1202.51 -10.4864 1208.27C32.1412 1223.91 87.5 1236.85 87.5 1207C87.5 1161.5 586 1087 345.5 877.5C285.749 825.451 317.086 754.855 277 686.5C223.707 595.623 118 676 87.5 494.5C74.8886 419.452 94 394 87.5 292Z" fill="#A6AFFF" stroke="#BFC5FC" stroke-width="20"/>
</g>
</svg>
