<svg width="23" height="24" viewBox="0 0 23 24" fill="none" xmlns="http://www.w3.org/2000/svg">
<path fill-rule="evenodd" clip-rule="evenodd" d="M22 7.17608V16.4486C22 19.8842 19.8499 22.3072 16.4144 22.3072H6.57421C3.13868 22.3072 1 19.8842 1 16.4486V7.17608C1 3.74054 3.15005 1.3186 6.57421 1.3186H16.4144C19.8499 1.3186 22 3.74054 22 7.17608Z" stroke="#5D6EFF" stroke-width="1.5" stroke-linecap="round" stroke-linejoin="round"/>
<path d="M3.87964 16.8819L5.61788 15.047C6.22195 14.4065 7.22872 14.3758 7.87032 14.9787C7.88966 14.9981 8.93625 16.0617 8.93625 16.0617C9.56761 16.7045 10.5994 16.7147 11.2422 16.0845C11.2842 16.0435 13.8973 12.8742 13.8973 12.8742C14.5708 12.0563 15.78 11.9391 16.5991 12.6137C16.6537 12.6592 19.1223 15.1926 19.1223 15.1926" stroke="#5D6EFF" stroke-width="1.5" stroke-linecap="round" stroke-linejoin="round"/>
<path fill-rule="evenodd" clip-rule="evenodd" d="M9.60323 8.57981C9.60323 9.68214 8.71022 10.5752 7.60789 10.5752C6.50556 10.5752 5.61255 9.68214 5.61255 8.57981C5.61255 7.47748 6.50556 6.58447 7.60789 6.58447C8.71022 6.58561 9.60323 7.47748 9.60323 8.57981Z" stroke="#5D6EFF" stroke-width="1.5" stroke-linecap="round" stroke-linejoin="round"/>
</svg>
