<svg width="37" height="37" viewBox="0 0 37 37" fill="none" xmlns="http://www.w3.org/2000/svg">
<path d="M12.1022 18.141C12.1022 14.8014 14.8103 12.0935 18.1519 12.0935C21.4934 12.0935 24.203 14.8014 24.203 18.141C24.203 21.4805 21.4934 24.1884 18.1519 24.1884C14.8103 24.1884 12.1022 21.4805 12.1022 18.141ZM8.8311 18.141C8.8311 23.2858 13.004 27.4561 18.1519 27.4561C23.2997 27.4561 27.4726 23.2858 27.4726 18.141C27.4726 12.9962 23.2997 8.8258 18.1519 8.8258C13.004 8.8258 8.8311 12.9962 8.8311 18.141ZM25.6634 8.45645C25.6632 8.887 25.7908 9.30794 26.03 9.66603C26.2692 10.0241 26.6093 10.3033 27.0072 10.4682C27.4052 10.6331 27.8431 10.6764 28.2657 10.5926C28.6883 10.5088 29.0765 10.3016 29.3812 9.99725C29.686 9.69292 29.8936 9.30512 29.9778 8.88287C30.062 8.46062 30.0191 8.0229 29.8544 7.62506C29.6897 7.22721 29.4106 6.88711 29.0525 6.64777C28.6944 6.40842 28.2733 6.28058 27.8425 6.28041H27.8416C27.2641 6.28067 26.7104 6.50999 26.302 6.918C25.8936 7.326 25.6639 7.87933 25.6634 8.45645ZM10.8185 32.9073C9.04877 32.8267 8.08687 32.5321 7.44763 32.2832C6.60016 31.9535 5.99549 31.5608 5.35974 30.9263C4.72398 30.2918 4.33045 29.6881 4.00198 28.8411C3.75279 28.2025 3.458 27.2409 3.37755 25.4722C3.28955 23.56 3.27198 22.9856 3.27198 18.1411C3.27198 13.2966 3.291 12.7238 3.37755 10.81C3.45815 9.04132 3.75511 8.08159 4.00198 7.44114C4.3319 6.59417 4.72486 5.98986 5.35974 5.35449C5.99461 4.71912 6.59871 4.32582 7.44763 3.99755C8.08658 3.74851 9.04877 3.4539 10.8185 3.3735C12.7319 3.28555 13.3066 3.26799 18.1519 3.26799C22.9971 3.26799 23.5724 3.287 25.4874 3.3735C27.2571 3.45404 28.2174 3.75083 28.8583 3.99755C29.7057 4.32582 30.3104 4.71999 30.9462 5.35449C31.5819 5.98899 31.974 6.59417 32.3039 7.44114C32.5531 8.0797 32.8479 9.04132 32.9283 10.81C33.0163 12.7238 33.0339 13.2966 33.0339 18.1411C33.0339 22.9856 33.0163 23.5585 32.9283 25.4722C32.8477 27.2409 32.5515 28.2022 32.3039 28.8411C31.974 29.6881 31.581 30.2924 30.9462 30.9263C30.3113 31.5602 29.7057 31.9535 28.8583 32.2832C28.2193 32.5323 27.2571 32.8269 25.4874 32.9073C23.574 32.9952 22.9993 33.0128 18.1519 33.0128C13.3044 33.0128 12.7313 32.9952 10.8185 32.9073ZM10.6682 0.109862C8.73584 0.197809 7.4154 0.504029 6.26225 0.952474C5.068 1.41558 4.05701 2.03687 3.04675 3.04493C2.03649 4.05298 1.41643 5.06496 0.953045 6.25849C0.504331 7.41168 0.197928 8.7306 0.109928 10.6618C0.0204753 12.5961 0 13.2145 0 18.141C0 23.0675 0.0204753 23.6859 0.109928 25.6201C0.197928 27.5515 0.504331 28.8703 0.953045 30.0235C1.41643 31.2163 2.03664 32.2294 3.04675 33.237C4.05687 34.2446 5.068 34.8651 6.26225 35.3295C7.41757 35.7779 8.73584 36.0841 10.6682 36.1721C12.6047 36.26 13.2224 36.2819 18.1519 36.2819C23.0813 36.2819 23.7001 36.2615 25.6355 36.1721C27.568 36.0841 28.8876 35.7779 30.0415 35.3295C31.235 34.8651 32.2467 34.2451 33.257 33.237C34.2672 32.229 34.886 31.2163 35.3507 30.0235C35.7994 28.8703 36.1072 27.5513 36.1938 25.6201C36.2818 23.6844 36.3023 23.0675 36.3023 18.141C36.3023 13.2145 36.2818 12.5961 36.1938 10.6618C36.1058 8.73045 35.7994 7.41095 35.3507 6.25849C34.886 5.06569 34.2656 4.05458 33.257 3.04493C32.2483 2.03527 31.235 1.41558 30.0429 0.952474C28.8876 0.504029 27.5679 0.196358 25.637 0.109862C23.7015 0.0219143 23.0828 0 18.1533 0C13.2238 0 12.6047 0.020463 10.6682 0.109862Z" fill="white"/>
</svg>
