<svg width="27" height="26" viewBox="0 0 27 26" fill="none" xmlns="http://www.w3.org/2000/svg">
<path d="M6.05322 25.2812V8.4131H0.479648V25.2812H6.05322ZM3.2676 6.11045C5.21081 6.11045 6.42059 4.81518 6.42059 3.19646C6.38421 1.54086 5.21081 0.281738 3.30455 0.281738C1.39698 0.281738 0.151123 1.54086 0.151123 3.19631C0.151123 4.81503 1.36047 6.1103 3.23108 6.1103L3.2676 6.11045ZM9.13826 25.2812H14.7114V15.8623C14.7114 15.3588 14.7478 14.854 14.895 14.4944C15.2977 13.4867 16.2148 12.4437 17.7548 12.4437C19.7711 12.4437 20.5781 13.9904 20.5781 16.2582V25.2812H26.1511V15.6095C26.1511 10.4286 23.4019 8.01764 19.735 8.01764C16.7287 8.01764 15.4083 9.70793 14.6747 10.8592H14.7118V8.41368H9.13855C9.2113 9.99611 9.13826 25.2812 9.13826 25.2812Z" fill="white"/>
</svg>
