<svg width="24" height="29" viewBox="0 0 24 29" fill="none" xmlns="http://www.w3.org/2000/svg">
<path fill-rule="evenodd" clip-rule="evenodd" d="M0 11.7427C0 5.24879 5.42666 0 11.9907 0C18.5733 0 24 5.24879 24 11.7427C24 15.0151 22.8099 18.0531 20.8511 20.6281C18.6901 23.4685 16.0266 25.9432 13.0285 27.8858C12.3424 28.3347 11.7231 28.3686 10.97 27.8858C7.95492 25.9432 5.29142 23.4685 3.14894 20.6281C1.18868 18.0531 0 15.0151 0 11.7427ZM6.86804 12.2551C6.86804 15.2199 9.26202 17.5517 12.1974 17.5517C15.1347 17.5517 17.5517 15.2199 17.5517 12.2551C17.5517 9.3134 15.1347 6.86807 12.1974 6.86807C9.26202 6.86807 6.86804 9.3134 6.86804 12.2551Z" fill="#5D6EFF"/>
</svg>
