<svg width="24" height="24" viewBox="0 0 24 24" fill="none" xmlns="http://www.w3.org/2000/svg">
<path d="M12.114 17.4087V14.5273" stroke="#5D6EFF" stroke-width="1.5" stroke-linecap="round" stroke-linejoin="round"/>
<path fill-rule="evenodd" clip-rule="evenodd" d="M19.15 4.52197C21.0694 4.52197 22.614 6.07795 22.614 7.99736V11.9043C19.8201 13.5398 16.1289 14.5279 12.1083 14.5279C8.08778 14.5279 4.40796 13.5398 1.61401 11.9043V7.98601C1.61401 6.06659 3.16999 4.52197 5.08941 4.52197H19.15Z" stroke="#5D6EFF" stroke-width="1.5" stroke-linecap="round" stroke-linejoin="round"/>
<path d="M16.0894 4.517V4.10131C16.0894 2.7157 14.965 1.59131 13.5794 1.59131H10.6492C9.26355 1.59131 8.13916 2.7157 8.13916 4.10131V4.517" stroke="#5D6EFF" stroke-width="1.5" stroke-linecap="round" stroke-linejoin="round"/>
<path d="M1.64185 16.053L1.8565 18.9026C2.00188 20.8231 3.60215 22.3075 5.52724 22.3075H18.7008C20.6259 22.3075 22.2262 20.8231 22.3715 18.9026L22.5862 16.053" stroke="#5D6EFF" stroke-width="1.5" stroke-linecap="round" stroke-linejoin="round"/>
</svg>
