<svg width="15" height="15" viewBox="0 0 15 15" fill="none" xmlns="http://www.w3.org/2000/svg">
<circle cx="7.5" cy="7.5" r="7" stroke="#333333"/>
<path d="M8.26602 3.66L8.11002 9.48H6.97002L6.81402 3.66H8.26602ZM7.58202 12.084C7.33402 12.084 7.12602 12 6.95802 11.832C6.79002 11.664 6.70602 11.456 6.70602 11.208C6.70602 10.96 6.79002 10.752 6.95802 10.584C7.12602 10.416 7.33402 10.332 7.58202 10.332C7.82202 10.332 8.02602 10.416 8.19402 10.584C8.36202 10.752 8.44602 10.96 8.44602 11.208C8.44602 11.456 8.36202 11.664 8.19402 11.832C8.02602 12 7.82202 12.084 7.58202 12.084Z" fill="#333333"/>
</svg>
