<svg width="35" height="28" viewBox="0 0 35 28" fill="none" xmlns="http://www.w3.org/2000/svg">
<path d="M33.9999 3.36357C32.9001 3.83643 31.7438 4.16571 30.5598 4.34326C31.1133 4.24845 31.9279 3.25296 32.2522 2.85003C32.7447 2.24223 33.1202 1.54839 33.3593 0.803741C33.3593 0.748436 33.4147 0.669429 33.3593 0.629925C33.3314 0.614712 33.3002 0.60674 33.2684 0.60674C33.2366 0.60674 33.2053 0.614712 33.1774 0.629925C31.8917 1.32552 30.5233 1.85642 29.1046 2.21007C29.0552 2.22516 29.0025 2.22651 28.9524 2.21399C28.9022 2.20146 28.8564 2.17552 28.8199 2.13896C28.7095 2.0076 28.5906 1.88356 28.464 1.76763C27.8854 1.2497 27.2289 0.825791 26.5186 0.511415C25.5597 0.118415 24.524 -0.0517843 23.4897 0.0136698C22.486 0.0769923 21.5062 0.345924 20.611 0.803741C19.7295 1.28641 18.9548 1.94214 18.3334 2.73151C17.6798 3.54399 17.2079 4.48688 16.9494 5.49676C16.7363 6.45737 16.7122 7.4502 16.8783 8.42003C16.8783 8.58594 16.8783 8.60964 16.7359 8.58594C11.0972 7.75637 6.47084 5.75749 2.69064 1.4674C2.52456 1.27778 2.43757 1.27778 2.30313 1.4674C0.658188 3.96403 1.45693 7.91438 3.51311 9.86586C3.7899 10.1266 4.07461 10.3794 4.37512 10.6164C3.43238 10.5496 2.51266 10.2943 1.67046 9.86586C1.51229 9.76315 1.4253 9.81845 1.41739 10.0081C1.39497 10.271 1.39497 10.5353 1.41739 10.7981C1.5824 12.058 2.07938 13.2514 2.85751 14.2565C3.63563 15.2615 4.66698 16.042 5.84608 16.5183C6.13352 16.6413 6.43303 16.7339 6.73973 16.7948C5.86698 16.9664 4.97187 16.9931 4.09042 16.8738C3.90062 16.8343 3.82945 16.937 3.90062 17.1187C5.06315 20.279 7.58593 21.2429 9.43649 21.7801C9.68955 21.8196 9.94262 21.8196 10.2273 21.8828C10.2273 21.8828 10.2273 21.8828 10.1799 21.9302C9.6342 22.9257 7.42776 23.5973 6.41549 23.9449C4.56783 24.608 2.59788 24.8614 0.642371 24.6876C0.333944 24.6402 0.262769 24.6481 0.183685 24.6876C0.104601 24.7271 0.183685 24.814 0.270677 24.893C0.666096 25.1537 1.06151 25.3829 1.47275 25.6041C2.697 26.2712 3.99128 26.8011 5.33204 27.1842C12.2756 29.0962 20.0891 27.6899 25.3007 22.5149C29.3972 18.4539 30.8366 12.8523 30.8366 7.24282C30.8366 7.0295 31.0975 6.90309 31.2478 6.79248C32.2842 5.98573 33.1979 5.03299 33.9604 3.96403C34.0924 3.80468 34.1601 3.6018 34.1502 3.39517C34.1502 3.27666 34.1502 3.30037 33.9999 3.36357Z" fill="white"/>
</svg>
